<?xml version="1.0" standalone="no"?>
<!DOCTYPE svg PUBLIC "-//W3C//DTD SVG 20010904//EN"
 "http://www.w3.org/TR/2001/REC-SVG-20010904/DTD/svg10.dtd">
<svg version="1.0" xmlns="http://www.w3.org/2000/svg"
 width="100.000000pt" height="100.000000pt" viewBox="0 0 100.000000 100.000000"
 preserveAspectRatio="xMidYMid meet">
<metadata>
Created by potrace 1.14, written by Peter Selinger 2001-2017
</metadata>
<g transform="translate(0.000000,100.000000) scale(0.100000,-0.100000)"
fill="#000000" stroke="none">
<path d="M100 899 c0 -95 1 -101 19 -96 12 3 28 -4 42 -19 12 -13 26 -24 31
-24 4 0 8 54 8 120 l0 120 -50 0 -50 0 0 -101z"/>
<path d="M866 975 c8 -13 14 -31 12 -41 -2 -14 6 -20 32 -24 19 -4 46 -12 60
-19 24 -12 24 -11 5 4 -11 9 -32 19 -47 22 l-28 5 23 27 c15 19 29 26 45 23
15 -3 22 0 22 12 0 9 -5 16 -11 16 -5 0 -7 -5 -3 -11 4 -8 0 -9 -15 -4 -15 4
-27 -1 -45 -20 l-25 -26 -3 27 c-2 16 -10 28 -20 30 -16 2 -16 0 -2 -21z"/>
<path d="M623 920 c-46 -27 -41 -34 5 -8 46 27 48 28 36 28 -5 0 -24 -9 -41
-20z"/>
<path d="M650 879 c-47 -17 -105 -33 -130 -36 -44 -4 -44 -3 -20 11 30 18 21
21 -15 4 l-26 -12 22 -12 22 -11 -23 -13 c-16 -9 -19 -14 -10 -20 21 -13 -34
-88 -67 -92 -19 -2 -27 -8 -25 -19 1 -8 -9 -22 -23 -29 -30 -16 -23 -30 16
-30 33 0 32 0 19 -34 l-9 -25 32 15 c29 14 32 20 33 60 2 45 24 84 49 84 7 0
35 26 63 58 45 52 48 58 26 54 -42 -8 -26 5 34 27 44 17 64 20 82 12 24 -9 24
-10 3 -10 -12 -1 -25 -6 -29 -13 -5 -8 0 -9 17 -5 22 6 22 4 -6 -19 -26 -21
-21 -20 47 11 42 19 84 35 92 35 9 0 16 3 16 8 0 4 -35 6 -77 5 l-78 -2 50 14
c32 8 41 13 25 14 -14 0 -63 -13 -110 -30z m-82 -58 c11 -6 10 -10 -4 -15 -9
-3 -19 -4 -22 -1 -3 3 1 5 9 5 11 0 11 2 -1 10 -8 5 -10 10 -5 10 6 0 16 -4
23 -9z"/>
<path d="M523 893 c9 -2 17 -10 17 -16 0 -9 2 -9 8 -1 4 6 14 14 22 17 8 3 -3
5 -25 5 -22 0 -32 -2 -22 -5z"/>
<path d="M889 783 c-40 -32 -67 -61 -118 -124 -20 -25 -42 -44 -49 -41 -20 6
-14 56 13 108 l25 49 -41 -45 c-23 -25 -57 -69 -77 -97 -37 -57 -47 -65 -39
-33 3 11 1 18 -4 14 -5 -3 -10 7 -10 23 -1 15 -5 4 -9 -26 -5 -30 -4 -64 0
-75 7 -16 9 -17 9 -4 1 9 25 37 53 63 l53 47 7 -42 c9 -51 14 -58 21 -30 3 11
1 18 -4 14 -5 -3 -9 2 -9 11 0 11 5 15 15 12 8 -4 17 -2 20 3 11 17 21 11 38
-22 8 -18 16 -26 16 -17 1 8 -6 24 -14 35 -17 23 -20 48 -3 38 7 -4 8 -3 4 4
-14 22 113 137 131 118 26 -25 42 -259 23 -325 -8 -28 -7 -32 3 -22 26 26 21
207 -10 341 -6 25 -6 25 16 6 12 -11 28 -40 36 -65 7 -25 14 -38 14 -28 1 25
-23 77 -52 110 l-24 28 -34 -28z"/>
<path d="M601 754 c-17 -19 -35 -33 -39 -30 -4 2 -7 -7 -7 -20 0 -22 1 -23 13
-7 7 10 29 35 48 56 20 20 31 37 26 37 -6 0 -24 -16 -41 -36z"/>
<path d="M295 713 c8 -18 18 -33 20 -33 10 0 4 16 -16 40 l-20 25 16 -32z"/>
<path d="M870 699 c-14 -16 -33 -32 -43 -35 -10 -3 -17 -8 -14 -10 11 -11 69
21 78 44 14 35 7 36 -21 1z"/>
<path d="M565 670 c-4 -6 -10 -8 -15 -5 -5 3 -17 -9 -26 -27 l-16 -33 38 35
c21 19 41 36 43 38 2 1 -1 2 -7 2 -6 0 -14 -5 -17 -10z"/>
<path d="M490 660 c8 -5 20 -10 25 -10 6 0 3 5 -5 10 -8 5 -19 10 -25 10 -5 0
-3 -5 5 -10z"/>
<path d="M862 605 c0 -16 2 -22 5 -12 2 9 2 23 0 30 -3 6 -5 -1 -5 -18z"/>
<path d="M851 554 c0 -11 3 -14 6 -6 3 7 2 16 -1 19 -3 4 -6 -2 -5 -13z"/>
<path d="M655 531 c10 -34 45 -90 45 -71 -1 8 -12 33 -26 55 -17 26 -23 32
-19 16z"/>
<path d="M801 534 c0 -11 3 -14 6 -6 3 7 2 16 -1 19 -3 4 -6 -2 -5 -13z"/>
<path d="M886 535 c-3 -9 -11 -13 -17 -9 -8 4 -9 3 -5 -4 4 -7 2 -12 -3 -12
-6 0 -11 6 -12 13 -1 12 -27 -49 -28 -67 -1 -5 6 -3 14 4 9 7 14 19 11 27 -3
8 -2 12 3 9 10 -6 57 41 49 49 -3 3 -8 -1 -12 -10z"/>
<path d="M910 516 c-7 -22 -16 -33 -22 -30 -7 5 -9 0 -6 -14 4 -12 3 -22 -2
-22 -4 0 -10 -14 -14 -32 -3 -17 -18 -46 -31 -64 l-26 -34 32 7 c33 6 59 -14
36 -30 -11 -7 33 -3 89 8 23 5 34 31 34 79 0 29 0 29 -22 10 -12 -10 -18 -13
-13 -5 5 8 -2 7 -20 -5 -23 -15 -28 -15 -37 -3 -8 11 -9 10 -4 -3 3 -11 0 -18
-7 -18 -8 0 -8 -3 2 -9 9 -6 10 -11 2 -15 -6 -4 -12 -2 -12 3 -3 20 -4 26 -12
38 -9 13 1 43 15 43 5 0 7 4 4 8 -3 5 4 33 15 62 11 29 18 54 15 57 -2 2 -9
-12 -16 -31z"/>
<path d="M402 445 c0 -16 2 -22 5 -12 2 9 2 23 0 30 -3 6 -5 -1 -5 -18z"/>
<path d="M274 321 c-45 -47 -91 -61 -198 -61 -42 0 -76 -4 -76 -8 0 -5 51 -8
114 -8 63 0 113 3 110 8 -3 4 2 5 10 2 11 -4 16 0 16 13 0 34 45 65 100 71 45
4 51 2 59 -19 6 -15 10 -18 10 -8 1 23 -18 35 -65 43 -39 5 -44 3 -80 -33z"/>
<path d="M759 303 c5 -18 7 -34 5 -36 -3 -2 2 -7 10 -10 12 -5 13 -1 4 26 -14
43 -30 59 -19 20z"/>
<path d="M595 290 c-26 -7 -24 -8 20 -9 36 0 46 2 35 9 -8 5 -17 9 -20 9 -3
-1 -18 -5 -35 -9z"/>
<path d="M360 274 c-17 -10 -18 -13 -5 -8 11 3 34 10 50 14 27 7 28 8 5 9 -14
0 -36 -7 -50 -15z"/>
<path d="M805 280 c-25 -11 1 -11 35 0 20 6 21 8 5 8 -11 0 -29 -3 -40 -8z"/>
<path d="M678 273 c7 -3 16 -2 19 1 4 3 -2 6 -13 5 -11 0 -14 -3 -6 -6z"/>
<path d="M458 253 c7 -3 16 -2 19 1 4 3 -2 6 -13 5 -11 0 -14 -3 -6 -6z"/>
<path d="M558 163 c6 -2 18 -2 25 0 6 3 1 5 -13 5 -14 0 -19 -2 -12 -5z"/>
<path d="M748 153 c7 -3 16 -2 19 1 4 3 -2 6 -13 5 -11 0 -14 -3 -6 -6z"/>
<path d="M948 153 c6 -2 18 -2 25 0 6 3 1 5 -13 5 -14 0 -19 -2 -12 -5z"/>
<path d="M386 119 c3 -5 11 -9 18 -9 7 0 26 -13 43 -29 24 -22 27 -30 16 -37
-9 -6 2 -9 34 -10 26 0 40 1 30 3 -29 7 -8 23 29 23 24 0 33 4 28 12 -4 6 -3
8 3 5 5 -3 98 -9 206 -12 l197 -7 0 26 c0 31 15 29 -246 30 -149 1 -190 -2
-187 -11 3 -7 0 -13 -7 -13 -6 0 -8 -4 -5 -10 12 -19 -39 -10 -61 11 -22 21
-109 45 -98 28z"/>
<path d="M3 85 c-3 -9 -3 -18 0 -21 3 -3 50 -3 104 2 78 6 92 9 68 16 -16 4
-36 6 -43 3 -7 -3 -10 0 -7 5 4 6 -17 10 -55 10 -45 0 -62 -4 -67 -15z"/>
<path d="M260 71 c-28 -6 -17 -8 59 -15 52 -4 101 -10 110 -13 9 -3 7 1 -5 11
-25 18 -113 28 -164 17z"/>
</g>
</svg>
